# Blender v3.2.1 OBJ File: 'LevelA.blend'
# www.blender.org
mtllib LevelA.mtl
o Plane
v 2.521070 5.671217 -6.297917
v 2.521070 5.671217 -2.394569
v -2.606294 6.112221 -3.393523
v -9.570196 0.000000 -2.500000
v 10.296116 5.384141 0.089141
v 9.653348 0.000000 1.403348
v 9.653348 0.000000 9.903348
v -9.653348 0.000000 1.403348
v -9.653348 0.000000 9.903348
v -1.403348 0.000000 9.903348
v 1.403348 0.000000 9.903348
v -1.403348 0.000000 -2.500000
v 1.403348 0.000000 -2.500000
v 1.403348 0.000000 -6.403348
v -1.403348 0.000000 -6.403348
v 2.406348 0.000000 0.807641
v -1.403348 0.000000 1.403348
v -2.691069 6.175286 -6.581614
v 3.049117 5.384141 -0.506566
v -9.485421 5.651576 -3.215256
v 4.597374 5.671217 -8.846519
v 3.179248 0.000000 -9.353325
v -0.469369 0.000000 -10.281795
v -2.084395 6.175286 -10.939520
v 6.383594 7.294706 -16.755484
v 4.001113 -1.774500 -16.403868
v -0.907562 -1.774500 -14.269995
v -3.681435 8.100796 -13.983231
v 10.281670 7.294706 -19.292934
v 8.297530 -1.774500 -21.265522
v -6.220694 -0.272404 -19.512405
v -7.732574 8.100796 -17.963596
v 17.910202 7.294706 -21.622843
v 17.005924 -1.860668 -23.460991
v 25.953644 7.294706 -21.840233
v 25.234104 -1.774500 -23.718199
v 0.566049 -9.531588 -70.490829
v 1.428072 -9.531588 -71.519821
v -1.644824 -8.993406 -69.841042
v -0.443581 -9.531588 -69.964218
v -0.376499 -9.531588 -76.210541
v -2.941401 -9.531588 -75.984009
v -4.594870 -9.531588 -74.010269
v -4.368369 -9.531588 -71.445450
v -2.258017 -9.066639 -69.792290
v 0.170312 -9.531588 -70.018440
v 1.823783 -9.531588 -71.992180
v 1.597282 -9.531588 -74.556999
v 14.613683 -2.448107 -117.610222
v -21.737160 -2.448107 -114.399651
v -45.170994 -2.448107 -86.426842
v -41.960903 -2.448107 -50.076878
v 17.721390 -2.420559 -30.393646
v 45.797054 -2.448107 -57.825546
v 42.586971 -2.448107 -94.175522
v -8.155712 -5.954316 -44.653164
v 10.794843 -5.104556 -48.388115
v -25.550722 -5.015530 -78.341858
v -23.740700 -5.015530 -57.845779
v 7.876172 -4.473649 -95.857178
v -12.337454 -5.015530 -94.114449
v 23.931982 -5.015530 -82.710983
v 25.742001 -3.028967 -62.214897
v 10.088906 -2.796975 -28.768566
v -2.280158 -3.181227 -27.663353
v 5.627173 -5.376114 -45.847694
v -1.330581 -5.139207 -45.195801
v 39.478954 -2.448107 -46.883461
v 30.171734 -2.448107 -37.752960
v 20.942200 -4.547173 -57.657654
v 16.033232 -3.799166 -53.010712
v -2.726377 -9.110037 -70.192146
v -3.895958 -9.531588 -71.049683
v -25.033054 -2.448107 -33.004471
v -34.357483 -2.448107 -40.816040
v -13.225462 -5.015530 -49.036606
v -18.483082 -5.015530 -53.441193
v -4.422579 -9.531588 -72.059303
v -4.540663 -9.531588 -73.396454
v -43.030933 -2.448107 -62.193535
v -44.100964 -2.448107 -74.310188
v -24.344040 -5.015530 -64.677803
v -24.947380 -5.015530 -71.509827
v -3.768148 -9.531588 -74.997131
v -33.454079 -2.448107 -100.413246
v -18.944088 -5.015530 -86.228149
v -1.658917 -9.531588 -76.097282
v -3.561739 -2.448107 -116.004936
v -1.992971 -5.162488 -95.054214
v 0.610367 -9.531588 -75.383789
v 28.600327 -2.448107 -105.892868
v 16.045553 -5.015530 -89.317863
v 1.651492 -9.531588 -73.943138
v 1.769577 -9.531588 -72.605995
v 43.656998 -2.448107 -82.058861
v 44.727028 -2.448107 -69.942200
v 24.535322 -3.028967 -75.878952
v 25.138660 -3.028967 -69.046921
v -13.216454 -1.774500 -21.268133
v -15.216507 8.100796 -19.700972
v -5.665277 -6.295649 -55.941982
v -16.374641 -5.970661 -76.609146
v 4.378039 -5.908102 -87.407257
v 13.913211 -5.315250 -79.268982
v 6.123819 -6.166938 -58.034084
v -15.264652 -5.970661 -64.040001
v -8.096464 -5.709543 -86.306389
v 15.138679 -5.073885 -66.711151
v -1.479792 -5.795786 -56.274750
v 2.787620 -5.970661 -56.676815
v 9.112206 -5.993446 -60.922058
v 12.191942 -4.620708 -63.788181
v -12.040438 -5.970661 -61.338905
v -8.862170 -6.591872 -58.671341
v -16.004644 -5.970661 -72.419426
v -15.634647 -5.970661 -68.229713
v -12.323149 -5.970661 -81.445381
v -1.986933 -5.970661 -86.836700
v 9.048281 -4.842821 -83.279274
v 14.730188 -5.154340 -70.897095
v 14.321700 -5.234795 -75.083038
v -0.046807 -6.751520 -67.209488
v -1.656426 -6.290014 -67.039078
v 1.618552 -7.050687 -67.382034
v -1.789045 -5.962413 -79.002548
v 0.608331 -6.960087 -79.276031
v -5.849196 -6.497601 -76.926262
v -4.249164 -6.256219 -78.806946
v -7.317687 -6.770691 -73.402756
v -7.449228 -6.738982 -75.045555
v -5.801905 -6.718034 -69.047676
v -7.054606 -6.834109 -70.117180
v -3.296505 -6.485884 -66.908684
v 2.680836 -6.986312 -68.641739
v 4.665915 -6.845055 -72.803329
v 4.805403 -6.857564 -71.161125
v 2.497635 -6.890062 -77.681877
v 4.386940 -6.820037 -76.087723
v 3.743120 -6.921938 -69.901428
v -4.549205 -6.601959 -67.978188
v -7.186147 -6.802400 -71.759964
v 4.526428 -6.832546 -74.445526
v -0.685859 -9.889341 -70.677612
v -1.667235 -9.889341 -70.590942
v -0.235315 -9.889341 -70.717407
v -1.577813 -9.889341 -75.178757
v -0.636627 -9.889341 -75.261879
v -3.125810 -9.889341 -74.371346
v -2.519047 -9.889341 -75.095627
v -3.692770 -9.889341 -73.196579
v -3.732553 -9.889341 -73.647072
v -3.219611 -9.889341 -71.474251
v -3.566320 -9.889341 -71.764709
v -2.117733 -9.889341 -70.551155
v 0.055123 -9.889341 -71.064102
v 0.938410 -9.889341 -72.616455
v 0.978193 -9.889341 -72.165962
v 0.087649 -9.889341 -74.655113
v 0.811960 -9.889341 -74.048325
v 0.687775 -9.889341 -71.819290
v -2.464406 -9.889341 -70.841576
v -3.606106 -9.889341 -72.215225
v 0.851746 -9.889341 -73.597801
v -13.987619 -2.448107 -26.642170
v 0.000000 0.000000 9.903348
v 0.000000 0.000000 -2.500000
v 0.000000 0.000000 -6.403348
v 0.501500 0.000000 1.105494
v 1.354939 0.000000 -9.817560
v 1.077463 -1.774500 -15.686619
v 1.038418 -1.642868 -20.388964
v -0.851617 -6.520767 -67.124283
v 2.148296 -5.257660 -45.521748
v 0.653914 -5.883224 -56.475784
v -1.044202 -9.262497 -69.902634
v -1.176547 -9.889341 -70.634277
v 3.904374 -2.989101 -28.215960
v 6.149322 -1.774500 -18.834694
v 8.332632 7.294706 -18.024208
v -5.641009 8.100796 -16.152594
v -3.498133 -1.023452 -17.070379
v 1.057940 -1.708684 -18.037792
vt 0.528593 0.436971
vt 0.637196 0.453953
vt 0.580011 0.642536
vt 0.500000 0.642536
vt 0.580011 0.865083
vt 0.500000 0.865083
vt 0.419989 0.419989
vt 0.419989 -0.064633
vt 0.500000 -0.064633
vt -0.050379 0.419989
vt -0.050379 -0.064633
vt 0.580011 -0.064633
vt 1.050379 -0.064633
vt 1.050379 0.419989
vt 0.500000 0.629279
vt 0.500000 0.716102
vt 0.147920 0.787668
vt 0.151516 0.712304
vt 0.419989 0.642536
vt -0.045639 0.642536
vt 0.351404 0.693479
vt -0.040805 0.683316
vt 0.643737 0.636525
vt 0.643737 0.859072
vt 1.087026 0.494918
vt 0.673843 0.528882
vt 0.762116 1.004379
vt 0.681263 1.033274
vt 0.346570 0.875246
vt 0.419989 0.865083
vt 0.473239 1.086210
vt 0.381160 1.123710
vt 0.577251 1.059742
vt 0.863956 1.455303
vt 0.728121 1.435256
vt 0.147920 0.852753
vt 0.500000 0.753340
vt 0.601172 0.865053
vt 0.038138 1.004293
vt 0.561431 1.394362
vt 0.601172 0.596125
vt 0.084097 0.463481
vt 0.084097 0.389384
vt 0.601172 0.537421
vt 0.038138 1.155417
vt 0.558351 1.063339
vt 0.515531 1.260582
vt 0.038138 1.305500
vt 0.560318 1.528413
vt 0.850600 1.573848
vt 0.973078 1.712440
vt 0.559205 1.662463
vt 0.084097 0.040738
vt 0.606085 0.129095
vt 0.084097 -0.376679
vt 0.601172 -0.297134
vt 0.176998 3.689496
vt 0.035007 3.045871
vt 0.424138 3.076809
vt 0.415631 3.708468
vt 0.820830 3.113976
vt 1.075212 2.140221
vt 1.510373 2.232874
vt 1.115461 3.258817
vt -0.887959 4.187563
vt -1.953381 4.045924
vt -1.892374 3.355100
vt -0.853560 3.798039
vt 0.386372 5.919454
vt 0.296930 7.113945
vt -0.739330 7.022421
vt -0.203412 5.865874
vt 1.414827 5.592400
vt 2.130629 6.537413
vt 1.333189 7.205470
vt 0.949055 5.965234
vt 1.694006 3.787313
vt 2.750867 3.173030
vt 3.111089 3.796886
vt 1.967663 4.047142
vt -0.254041 3.295790
vt -0.927243 2.381728
vt -0.297495 2.018986
vt -0.580085 5.416242
vt -1.407362 6.224996
vt -2.075395 5.427570
vt -0.956758 4.966610
vt 1.898865 4.826189
vt 2.989075 5.178532
vt 2.928068 5.869356
vt 1.864466 5.215713
vt 1.316542 4.780810
vt 1.293253 5.019469
vt -0.202596 5.143555
vt -0.433589 4.867820
vt -0.005271 3.845108
vt 1.195116 4.136842
vt 1.363122 4.303493
vt 1.015882 5.248113
vt 0.749611 5.483468
vt 0.386716 5.450938
vt 0.038385 5.420702
vt -0.391399 4.390073
vt -0.370304 4.151199
vt 0.658934 3.731392
vt 0.849146 3.808775
vt 0.537282 3.719930
vt 0.622484 3.095393
vt 0.369998 2.077208
vt 0.722605 2.108715
vt 1.414124 3.522371
vt 1.019526 3.973431
vt 2.220222 2.652460
vt -0.553801 3.546915
vt -0.186478 3.997198
vt -1.458869 2.827100
vt -0.922359 4.577086
vt -0.412494 4.628946
vt -2.014388 4.736747
vt 1.933264 4.436665
vt 1.339832 4.542151
vt 3.050082 4.487709
vt 0.601172 1.666887
vt 0.038138 1.737024
vt 0.766024 4.650834
vt 0.758071 4.744463
vt 0.773977 4.557205
vt 0.750118 4.838092
vt 0.642401 4.928981
vt 0.534684 5.019871
vt 0.397999 5.004279
vt 0.257737 4.993126
vt 0.166512 4.885900
vt 0.082787 4.685010
vt 0.090287 4.591347
vt 0.075287 4.778673
vt 0.169208 4.436708
vt 0.240630 4.375732
vt 0.097786 4.497685
vt 0.652846 4.413564
vt 0.713412 4.485384
vt 0.592281 4.341743
vt 0.451446 4.327047
vt 0.497331 4.331905
vt 0.312052 4.314755
vt 0.405560 4.322189
vt 0.600891 4.639583
vt 0.553503 4.640180
vt 0.555771 4.614495
vt 0.603982 4.604587
vt 1.028095 2.109670
vt 0.871777 2.037760
vt 0.884933 1.997406
vt 1.043437 2.079509
vt 0.474710 4.488964
vt 0.509710 4.492056
vt 0.478534 4.845094
vt 0.405418 4.838637
vt 0.332298 4.832179
vt 0.285161 4.775912
vt 0.238026 4.719647
vt 0.241117 4.684651
vt 0.250940 4.573416
vt 0.277874 4.550851
vt 0.371261 4.479162
vt 0.406221 4.481941
vt 0.532273 4.518989
vt 0.591068 4.750819
vt 0.534800 4.797957
vt 0.581421 4.577656
vt 0.344557 4.501959
vt 0.247850 4.608414
vt 0.594159 4.715820
vt 0.486584 4.531907
vt 0.460896 4.529638
vt 0.287191 4.698940
vt 0.321784 4.740233
vt 0.504997 4.756413
vt 0.546293 4.721817
vt 0.410042 4.786268
vt 0.463703 4.791007
vt 0.356378 4.781528
vt 0.539213 4.594730
vt 0.503143 4.551673
vt 0.289459 4.673255
vt 0.548562 4.696130
vt 1.016928 2.170936
vt 1.063834 2.180451
vt 1.063834 2.205110
vt 1.019403 2.204417
vt 0.316436 4.575058
vt 0.296669 4.591618
vt 0.359493 4.538986
vt 0.404944 4.524696
vt 0.379259 4.522428
vt 0.294400 4.617304
vt 1.063834 2.132891
vt 1.063834 2.157687
vt 1.012753 2.139830
vt 0.432920 4.527167
vt 1.469582 1.837613
vt 1.938706 1.852278
vt -0.253527 1.712589
vt 0.145331 1.612487
vt 0.440465 4.485453
vt 0.858621 2.078115
vt 0.300556 1.473257
vt 0.448256 1.313594
vt 0.601172 0.654829
vt 0.084097 0.537579
vn 0.0000 1.0000 0.0000
vn -0.2589 0.9065 0.3336
vn -0.5922 0.8012 0.0858
vn -0.5271 0.8342 -0.1620
vn -0.0505 0.7871 0.6147
vn 0.2547 0.9357 0.2440
vn 0.6501 0.7577 0.0565
vn 0.9720 0.2186 0.0864
vn 0.6988 0.2339 0.6760
vn 0.0050 0.7603 0.6496
vn 0.0076 0.1362 0.9907
vn -0.9715 0.1894 0.1425
vn -0.9298 0.2109 -0.3016
vn -0.0794 0.2453 0.9662
vn -0.6449 0.2523 0.7215
vn -0.9036 0.2353 -0.3580
vn -0.6296 0.7049 -0.3266
vn 0.5883 0.7932 -0.1575
vn 0.9641 0.2498 -0.0905
vn -0.0214 0.9887 -0.1482
vn -0.8231 0.2219 -0.5227
vn -0.4379 0.8483 -0.2978
vn 0.4174 0.8471 -0.3289
vn 0.8231 0.2422 -0.5138
vn 0.0326 0.9949 -0.0954
vn -0.4119 0.7896 -0.4548
vn -0.6530 0.2252 -0.7231
vn -0.4520 0.2535 -0.8552
vn -0.2642 0.8107 -0.5225
vn 0.6980 0.2351 -0.6764
vn 0.5348 0.7641 -0.3607
vn 0.2974 0.7348 -0.6096
vn 0.4415 0.2281 -0.8678
vn 0.0883 0.9950 0.0476
vn 0.0637 0.9944 -0.0839
vn -0.1404 0.2203 -0.9653
vn -0.1121 0.7713 -0.6265
vn -0.0296 0.2022 -0.9789
vn -0.0355 0.7921 -0.6094
vn -0.0330 0.9983 -0.0483
vn 0.0309 0.9942 -0.1030
vn -0.0337 0.9946 -0.0979
vn -0.0290 0.9980 -0.0555
vn -0.0322 0.9945 -0.0996
vn -0.0460 0.9904 -0.1302
vn -0.0626 0.9944 -0.0852
vn -0.1083 0.9917 -0.0695
vn 0.1199 0.9927 -0.0106
vn 0.1346 0.9908 -0.0119
vn 0.1149 0.9920 -0.0514
vn 0.1014 0.9936 -0.0494
vn -0.0014 0.9938 0.1112
vn 0.0004 0.9933 0.1156
vn 0.0548 0.9932 0.1028
vn 0.0540 0.9942 0.0933
vn -0.0459 0.9969 0.0638
vn -0.0651 0.9935 0.0935
vn -0.0336 0.9943 0.1007
vn -0.0414 0.9949 0.0919
vn -0.0853 0.9961 -0.0214
vn -0.0614 0.9979 -0.0201
vn -0.0567 0.9982 0.0200
vn -0.0939 0.9954 0.0190
vn 0.1144 0.9902 -0.0801
vn 0.1057 0.9890 -0.1033
vn 0.0278 0.9832 -0.1807
vn 0.0869 0.9932 0.0779
vn 0.0965 0.9920 0.0808
vn 0.1143 0.9927 0.0379
vn 0.1096 0.9935 0.0310
vn -0.1262 0.9903 -0.0573
vn -0.0846 0.9951 -0.0518
vn -0.1012 0.9948 0.0063
vn -0.0962 0.9949 -0.0320
vn -0.1712 0.9845 -0.0381
vn -0.0934 0.9956 -0.0042
vn 0.0540 0.9955 0.0778
vn 0.0878 0.9955 0.0349
vn 0.0634 0.9974 -0.0351
vn -0.1463 0.9882 -0.0457
vn -0.1513 0.9881 -0.0270
vn -0.0959 0.9917 0.0851
vn -0.0591 0.9951 0.0791
vn 0.0298 0.9960 0.0842
vn 0.0314 0.9969 0.0719
vn 0.1013 0.9948 -0.0061
vn 0.0771 0.9962 -0.0405
vn 0.0351 0.9962 -0.0792
vn -0.0791 0.9948 -0.0643
vn 0.0656 0.9956 -0.0676
vn 0.0058 0.9955 -0.0947
vn 0.0061 0.9816 -0.1911
vn -0.0054 0.9876 -0.1572
vn -0.1159 0.9917 -0.0551
vn -0.1741 0.9846 -0.0147
vn -0.0604 0.9957 -0.0709
vn 0.0909 0.9925 -0.0813
vn 0.0813 0.9955 -0.0488
vn 0.0894 0.9916 -0.0938
vn 0.0984 0.9951 -0.0059
vn -0.1158 0.9932 0.0070
vn -0.1849 0.9827 0.0078
vn -0.0295 0.9996 0.0026
vn 0.0877 0.7436 -0.6629
vn 0.2096 0.2036 -0.9564
vn -0.4397 0.8975 0.0344
vn -0.4377 0.8985 0.0342
vn -0.3402 0.9316 -0.1281
vn -0.3132 0.9312 0.1865
vn -0.3146 0.8932 0.3212
vn -0.0571 0.9428 0.3283
vn 0.0959 0.9051 0.4142
vn 0.1133 0.9399 0.3220
vn 0.2993 0.9009 0.3142
vn 0.4226 0.9059 -0.0277
vn 0.4222 0.9061 -0.0277
vn 0.3071 0.9428 0.1298
vn 0.2400 0.9123 -0.3318
vn 0.2090 0.9280 -0.3085
vn 0.2892 0.9444 -0.1563
vn -0.3793 0.9007 -0.2118
vn -0.3785 0.8908 -0.2514
vn -0.1204 0.9479 -0.2948
vn 0.1466 0.9000 -0.4106
vn 0.0997 0.8974 -0.4299
vn -0.0107 0.9581 -0.2861
vn -0.0001 0.9247 -0.3807
vn -0.5438 0.8378 0.0491
vn -0.2020 0.9792 0.0178
vn -0.2292 0.9700 -0.0808
vn -0.5289 0.8336 -0.1593
vn 0.1464 0.7174 -0.6812
vn 0.0674 0.7939 -0.6043
vn -0.2351 0.8330 -0.5008
vn -0.1004 0.8441 0.5268
vn 0.0840 0.8183 0.5685
vn 0.2431 0.8106 0.5328
vn 0.4163 0.8258 0.3805
vn 0.5299 0.8273 0.1865
vn 0.5594 0.8278 -0.0431
vn 0.4978 0.8256 -0.2656
vn 0.3307 0.7915 -0.5139
vn 0.1433 0.7291 -0.6692
vn 0.0128 0.6969 -0.7171
vn -0.4313 0.8316 -0.3500
vn -0.4802 0.8421 0.2456
vn -0.3436 0.8507 0.3979
vn -0.4337 0.8294 -0.3522
vn 0.3768 0.7179 -0.5854
vn 0.5570 0.8294 -0.0428
vn -0.5442 0.8375 0.0491
vn -0.1148 0.9668 -0.2283
vn 0.0333 0.9619 -0.2713
vn 0.2179 0.9741 0.0609
vn 0.1450 0.9820 0.1215
vn -0.1215 0.9820 0.1450
vn -0.2039 0.9741 0.0981
vn 0.0162 0.9829 0.1833
vn -0.0672 0.9766 0.2044
vn 0.1019 0.9766 0.1894
vn -0.1673 0.9759 -0.1402
vn 0.2019 0.9792 -0.0178
vn 0.1332 0.8792 -0.4576
vn 0.1956 0.9282 -0.3166
vn 0.1443 0.9579 -0.2482
vn 0.2115 0.9700 -0.1198
vn -0.0005 0.9155 -0.4023
vn 0.0645 0.9344 -0.3504
usemtl Material.001
s 1
f 168/1/1 16/2/2 13/3/3 166/4/1
f 166/4/1 13/3/3 14/5/4 167/6/1
f 168/1/1 17/7/1 10/8/1 165/9/1
f 10/8/1 17/7/1 8/10/1 9/11/1
f 16/2/2 11/12/1 7/13/1 6/14/5
f 12/15/6 15/16/7 18/17/8 3/18/9
f 17/7/1 12/19/6 4/20/10 8/10/1
f 12/19/6 3/21/9 20/22/11 4/20/10
f 14/5/4 13/3/3 2/23/12 1/24/13
f 16/2/2 6/14/5 5/25/14 19/26/15
f 13/3/3 16/2/2 19/26/15 2/23/12
f 14/5/4 1/24/13 21/27/16 22/28/17
f 18/29/8 15/30/7 23/31/18 24/32/19
f 167/6/1 14/5/4 22/28/17 169/33/20
f 22/28/17 21/27/16 25/34/21 26/35/22
f 24/36/19 23/37/18 27/38/23 28/39/24
f 169/33/20 22/28/17 26/35/22 170/40/25
f 178/41/26 179/42/27 29/43/28 30/44/29
f 180/45/30 181/46/31 31/47/32 32/48/33
f 182/49/34 178/50/26 30/51/29 171/52/35
f 30/44/29 29/43/28 33/53/36 34/54/37
f 34/54/37 33/53/36 35/55/38 36/56/39
f 101/57/40 56/58/41 67/59/42 109/60/43
f 66/61/44 64/62/45 53/63/46 57/64/47
f 82/65/48 80/66/49 52/67/50 59/68/51
f 89/69/52 88/70/53 50/71/54 61/72/55
f 92/73/56 91/74/57 49/75/58 60/76/59
f 70/77/60 68/78/61 54/79/62 63/80/63
f 76/81/64 74/82/65 164/83/66 56/58/41
f 86/84/67 85/85/68 51/86/69 58/87/70
f 97/88/71 95/89/72 55/90/73 62/91/74
f 121/92/75 97/88/71 62/91/74 104/93/76
f 117/94/77 86/84/67 58/87/70 102/95/78
f 114/96/79 76/81/64 56/58/41 101/57/40
f 112/97/80 70/77/60 63/80/63 108/98/81
f 119/99/82 92/73/56 60/76/59 103/100/83
f 118/101/84 89/69/52 61/72/55 107/102/85
f 116/103/86 82/65/48 59/68/51 106/104/87
f 110/105/88 66/61/44 57/64/47 105/106/89
f 174/107/90 173/108/91 66/61/44 110/105/88
f 56/58/41 164/83/66 65/109/92 67/59/42
f 173/108/91 177/110/93 64/62/45 66/61/44
f 105/106/89 57/64/47 71/111/94 111/112/95
f 111/112/95 71/111/94 70/77/60 112/97/80
f 57/64/47 53/63/46 69/113/96 71/111/94
f 71/111/94 69/113/96 68/78/61 70/77/60
f 106/104/87 59/68/51 77/114/97 113/115/98
f 113/115/98 77/114/97 76/81/64 114/96/79
f 59/68/51 52/67/50 75/116/99 77/114/97
f 77/114/97 75/116/99 74/82/65 76/81/64
f 102/95/78 58/87/70 83/117/48 115/118/100
f 115/118/100 83/117/48 82/65/48 116/103/86
f 58/87/70 51/86/69 81/119/49 83/117/48
f 83/117/48 81/119/49 80/66/49 82/65/48
f 107/102/85 61/72/55 86/84/67 117/94/77
f 61/72/55 50/71/54 85/85/68 86/84/67
f 103/100/83 60/76/59 89/69/52 118/101/84
f 60/76/59 49/75/58 88/70/53 89/69/52
f 104/93/76 62/91/74 92/73/56 119/99/82
f 62/91/74 55/90/73 91/74/57 92/73/56
f 108/98/81 63/80/63 98/120/101 120/121/102
f 120/121/102 98/120/101 97/88/71 121/92/75
f 63/80/63 54/79/62 96/122/103 98/120/101
f 98/120/101 96/122/103 95/89/72 97/88/71
f 32/48/33 31/47/32 99/123/104 100/124/105
f 135/125/106 120/121/102 121/92/75 142/126/107
f 136/127/108 108/98/81 120/121/102 135/125/106
f 138/128/109 104/93/76 119/99/82 137/129/110
f 126/130/111 103/100/83 118/101/84 125/131/112
f 128/132/113 107/102/85 117/94/77 127/133/114
f 129/134/115 115/118/100 116/103/86 141/135/116
f 130/136/117 102/95/78 115/118/100 129/134/115
f 131/137/118 113/115/98 114/96/79 140/138/119
f 132/139/120 106/104/87 113/115/98 131/137/118
f 134/140/121 111/112/95 112/97/80 139/141/122
f 124/142/123 105/106/89 111/112/95 134/140/121
f 172/143/124 174/107/90 110/105/88 122/144/125
f 122/144/125 110/105/88 105/106/89 124/142/123
f 141/135/116 116/103/86 106/104/87 132/139/120
f 125/131/112 118/101/84 107/102/85 128/132/113
f 137/129/110 119/99/82 103/100/83 126/130/111
f 139/141/122 112/97/80 108/98/81 136/127/108
f 140/138/119 114/96/79 101/57/40 133/145/126
f 127/133/114 117/94/77 102/95/78 130/136/117
f 142/126/107 121/92/75 104/93/76 138/128/109
f 133/145/126 101/57/40 109/60/43 123/146/127
f 94/147/128 156/148/129 157/149/130 47/150/131
f 175/151/132 172/152/124 122/153/125 40/154/133
f 40/155/133 122/144/125 124/142/123 46/156/134
f 41/157/135 126/130/111 125/131/112 87/158/136
f 42/159/137 128/132/113 127/133/114 84/160/138
f 43/161/139 130/136/117 129/134/115 79/162/140
f 44/163/141 132/139/120 131/137/118 73/164/142
f 45/165/143 133/145/126 123/146/127 39/166/144
f 46/156/134 124/142/123 134/140/121 37/167/145
f 47/150/131 136/127/108 135/125/106 94/147/128
f 48/168/146 138/128/109 137/129/110 90/169/147
f 38/170/148 139/141/122 136/127/108 47/150/131
f 37/167/145 134/140/121 139/141/122 38/170/148
f 72/171/149 140/138/119 133/145/126 45/165/143
f 73/164/142 131/137/118 140/138/119 72/171/149
f 78/172/150 141/135/116 132/139/120 44/163/141
f 79/162/140 129/134/115 141/135/116 78/172/150
f 84/160/138 127/133/114 130/136/117 43/161/139
f 87/158/136 125/131/112 128/132/113 42/159/137
f 90/169/147 137/129/110 126/130/111 41/157/135
f 93/173/151 142/126/107 138/128/109 48/168/146
f 94/147/128 135/125/106 142/126/107 93/173/151
f 46/156/134 145/174/152 143/175/153 40/155/133
f 43/161/139 151/176/154 148/177/155 84/160/138
f 90/169/147 158/178/156 159/179/157 48/168/146
f 87/158/136 146/180/158 147/181/159 41/157/135
f 42/159/137 149/182/160 146/180/158 87/158/136
f 47/150/131 157/149/130 160/183/161 38/170/148
f 84/160/138 148/177/155 149/182/160 42/159/137
f 41/157/135 147/181/159 158/178/156 90/169/147
f 38/170/148 160/183/161 155/184/161 37/167/145
f 79/162/140 150/185/162 151/176/154 43/161/139
f 48/168/146 159/179/157 163/186/129 93/173/151
f 45/187/143 154/188/163 161/189/164 72/190/149
f 73/164/142 152/191/165 153/192/166 44/163/141
f 93/173/151 163/186/129 156/148/129 94/147/128
f 72/171/149 161/193/164 152/191/165 73/164/142
f 39/166/144 144/194/167 154/195/163 45/165/143
f 44/163/141 153/192/166 162/196/162 78/172/150
f 37/167/145 155/184/161 145/174/152 46/156/134
f 175/151/132 176/197/168 144/198/167 39/199/144
f 78/172/150 162/196/162 150/185/162 79/162/140
f 143/175/153 145/174/152 155/184/161 160/183/161 157/149/130 156/148/129 163/186/129 159/179/157 158/178/156 147/181/159 146/180/158 149/182/160 148/177/155 151/176/154 150/185/162 162/196/162 153/192/166 152/191/165 161/193/164 154/195/163 144/194/167 176/200/168
f 171/52/35 30/51/29 64/62/45 177/110/93
f 30/51/29 34/201/37 53/63/46 64/62/45
f 34/201/37 36/202/39 69/113/96 53/63/46
f 164/83/66 99/203/104 31/204/32 65/109/92
f 31/204/32 171/52/35 177/110/93 65/109/92
f 40/155/133 143/175/153 176/200/168 175/205/132
f 39/199/144 123/206/127 172/152/124 175/151/132
f 123/146/127 109/60/43 174/107/90 172/143/124
f 67/59/42 65/109/92 177/110/93 173/108/91
f 109/60/43 67/59/42 173/108/91 174/107/90
f 181/207/31 182/49/34 171/52/35 31/204/32
f 23/31/18 169/33/20 170/40/25 27/208/23
f 15/30/7 167/6/1 169/33/20 23/31/18
f 16/2/2 168/1/1 165/9/1 11/12/1
f 12/19/6 166/4/1 167/6/1 15/30/7
f 17/7/1 168/1/1 166/4/1 12/19/6
f 27/208/23 170/40/25 182/49/34 181/207/31
f 170/40/25 26/35/22 178/50/26 182/49/34
f 28/39/24 27/38/23 181/46/31 180/45/30
f 26/209/22 25/210/21 179/42/27 178/41/26
